<svg width="18" height="18" viewBox="0 0 18 18" fill="none" xmlns="http://www.w3.org/2000/svg">
<path d="M10.766 7.23247C11.742 8.20877 11.742 9.79177 10.766 10.7681C9.78902 11.7444 8.20705 11.7444 7.23003 10.7681C6.25405 9.79177 6.25405 8.20877 7.23003 7.23247C8.20705 6.25617 9.78902 6.25617 10.766 7.23247Z" stroke="#8B8B94" stroke-width="1.5" stroke-linecap="round" stroke-linejoin="round"/>
<path fill-rule="evenodd" clip-rule="evenodd" d="M11.8472 1.1202L12.4302 1.3142C12.9642 1.4922 13.3252 1.9922 13.3252 2.5552V3.3922C13.3252 4.1042 13.8932 4.6852 14.6052 4.7002L15.4432 4.7182C15.9282 4.7282 16.3682 5.0072 16.5852 5.4412L16.8602 5.9912C17.1122 6.4952 17.0132 7.1032 16.6152 7.5012L16.0232 8.0932C15.5202 8.5962 15.5112 9.4092 16.0032 9.9232L16.5832 10.5292C16.9192 10.8802 17.0332 11.3872 16.8792 11.8482L16.6852 12.4312C16.5072 12.9652 16.0072 13.3262 15.4442 13.3262H14.6072C13.8952 13.3262 13.3142 13.8942 13.2992 14.6062L13.2812 15.4442C13.2712 15.9292 12.9922 16.3692 12.5582 16.5862L12.0082 16.8612C11.5042 17.1132 10.8962 17.0142 10.4982 16.6162L9.90618 16.0242C9.40319 15.5212 8.59021 15.5122 8.0762 16.0042L7.47018 16.5842C7.1192 16.9202 6.61221 17.0342 6.15121 16.8802L5.5682 16.6862C5.03421 16.5082 4.67318 16.0082 4.67318 15.4452V14.6082C4.67318 13.8962 4.10519 13.3152 3.39318 13.3002L2.5552 13.2822C2.07019 13.2722 1.63018 12.9932 1.4132 12.5592L1.13821 12.0092C0.886195 11.5052 0.985194 10.8972 1.3832 10.4992L1.97518 9.9072C2.47821 9.4042 2.48721 8.5912 1.9952 8.0772L1.41519 7.4712C1.07818 7.1192 0.964198 6.6112 1.11819 6.1512L1.31219 5.5682C1.4902 5.0342 1.9902 4.6732 2.55319 4.6732H3.39019C4.1022 4.6732 4.68319 4.1052 4.69821 3.3932L4.71618 2.5552C4.72821 2.0702 5.00619 1.6302 5.44018 1.4132L5.9902 1.1382C6.4942 0.886199 7.1022 0.9852 7.50021 1.3832L8.09219 1.9752C8.59518 2.4782 9.4082 2.4872 9.92221 1.9952L10.5282 1.4152C10.8792 1.0802 11.3872 0.966199 11.8472 1.1202Z" stroke="#8B8B94" stroke-width="1.5" stroke-linecap="round" stroke-linejoin="round"/>
</svg>
